<?xml version="1.0" encoding="UTF-8" standalone="no"?>
<!-- Created with Inkscape (http://www.inkscape.org/) -->
<svg
   xmlns:svg="http://www.w3.org/2000/svg"
   xmlns="http://www.w3.org/2000/svg"
   version="1.0"
   width="580"
   height="218"
   viewBox="0 -0.173 580 218"
   id="svg2"
   xml:space="preserve">
	<defs
   id="defs4">
	</defs>
	<g
   id="g6">
		<rect
   width="577.047"
   height="180.423"
   x="0"
   y="22.735001"
   style="fill:#ffffff"
   id="rect8" /> 
		<g
   id="g10">
			<path
   d="M 568.322,132.061 L 549.624,132.061 L 549.624,184.295 L 516.966,184.295 L 517.014,121.967 C 517.478,115.658 521.901,110.921 527.272,107.45 C 538.154,100.663 554.903,103.83 568.323,103.2 M 509.85,152.136 L 476.492,152.136 L 476.492,128.652 L 470.942,128.652 L 470.942,157.333 L 509.85,157.333 L 509.85,184.296 C 509.85,184.296 475.984,184.138 459.258,184.138 C 449.01,182.556 437.959,175.142 435.59,164.41 C 434.165,151.474 434.015,137.436 435.745,124.655 C 436.383,116.129 442.85,108.552 450.74,105.56 C 466.982,100.513 487.343,100.354 502.018,109.345 L 505.17,111.874 C 510.541,117.075 509.269,124.176 509.907,131.271 C 509.753,138.059 509.85,152.136 509.85,152.136 M 406.761,184.295 L 391.776,158.628 L 391.776,184.295 L 359.067,184.295 L 359.067,68.401 L 391.776,68.401 L 391.776,128.941 L 407.08,103.2 L 441.74,103.2 L 419.02,142.796 L 441.927,184.295 L 406.761,184.295 z M 354.08,132.061 L 335.38,132.061 L 335.38,184.295 L 302.9,184.295 C 302.9,184.295 302.581,142.162 302.9,121.967 C 302.9,113.289 311.727,107.45 318.99,104.767 C 329.398,101.616 354.081,103.201 354.081,103.201 L 354.081,132.061 L 354.08,132.061 z M 295.613,184.295 L 235.661,184.137 C 228.89,182.715 221.945,178.607 218.774,171.984 C 215.632,163.94 214.677,153.528 219.569,145.953 C 228.26,135.062 256.957,137.436 256.957,137.436 L 256.957,159.624 L 262.485,159.624 L 262.485,131.509 L 227.47,131.509 L 227.47,103.709 L 275.747,103.709 C 282.693,103.869 289.159,107.93 292.639,114.079 C 294.843,118.027 295.631,122.44 295.79,127.338 L 295.613,184.295 z M 168.866,164.588 L 168.866,184.295 L 122.697,184.295 L 122.697,137.436 L 176.48,137.436 L 176.48,99.739 L 122.697,99.739 L 122.697,68.401 L 178.549,68.005 C 193.696,67.692 208.046,73.21 215.95,86.78 C 224.619,103.66 225.882,129.067 215.467,145.634 C 204.584,160.465 186.853,164.901 168.866,164.588 M 0.094,0 L 0.094,105.062 L 170.395,105.062 L 170.395,132.061 L 0.094,132.061 L 0.094,217.506 L 579.005,217.506 L 579.005,0 L 0.094,0 z "
   id="path12" />
		</g>
	</g>
</svg>